<svg xmlns="http://www.w3.org/2000/svg" viewBox="0 0 1000 620" width="1000" height="620">
<rect width="1000" height="620" fill="#1e1e2e"/>
<text x="500" y="28" fill="#cdd6f4" font-family="monospace" font-size="16" font-weight="bold" text-anchor="middle">Activity Diagrams – All Use Cases</text>

<!-- UC1 -->
<text x="83" y="55" fill="#89b4fa" font-family="monospace" font-size="12" font-weight="bold" text-anchor="middle">UC-1: Add Device</text>
<circle cx="83" cy="75" r="10" fill="#89b4fa"/>
<rect x="33" y="95" width="100" height="28" rx="14" fill="#313244" stroke="#89b4fa" stroke-width="1.5"/>
<text x="83" y="114" fill="#cdd6f4" font-family="monospace" font-size="10" text-anchor="middle">Main Menu</text>
<rect x="33" y="138" width="100" height="28" rx="14" fill="#313244" stroke="#89b4fa" stroke-width="1.5"/>
<text x="83" y="157" fill="#cdd6f4" font-family="monospace" font-size="10" text-anchor="middle">Enter Details</text>
<rect x="33" y="181" width="100" height="28" rx="14" fill="#313244" stroke="#89b4fa" stroke-width="1.5"/>
<text x="83" y="200" fill="#cdd6f4" font-family="monospace" font-size="10" text-anchor="middle">Select Type</text>
<rect x="33" y="224" width="100" height="28" rx="14" fill="#313244" stroke="#89b4fa" stroke-width="1.5"/>
<text x="83" y="243" fill="#cdd6f4" font-family="monospace" font-size="10" text-anchor="middle">Save Device</text>
<rect x="33" y="267" width="100" height="28" rx="14" fill="#a6e3a1" stroke="#a6e3a1" stroke-width="1.5"/>
<text x="83" y="286" fill="#1e1e2e" font-family="monospace" font-size="10" text-anchor="middle" font-weight="bold">✓ Created</text>
<circle cx="83" cy="315" r="10" fill="none" stroke="#89b4fa" stroke-width="2"/><circle cx="83" cy="315" r="6" fill="#89b4fa"/>
<line x1="83" y1="85" x2="83" y2="95" stroke="#585b70" stroke-width="1.5" marker-end="url(#sm)"/>
<line x1="83" y1="123" x2="83" y2="138" stroke="#585b70" stroke-width="1.5" marker-end="url(#sm)"/>
<line x1="83" y1="166" x2="83" y2="181" stroke="#585b70" stroke-width="1.5" marker-end="url(#sm)"/>
<line x1="83" y1="209" x2="83" y2="224" stroke="#585b70" stroke-width="1.5" marker-end="url(#sm)"/>
<line x1="83" y1="252" x2="83" y2="267" stroke="#585b70" stroke-width="1.5" marker-end="url(#sm)"/>
<line x1="83" y1="295" x2="83" y2="305" stroke="#585b70" stroke-width="1.5" marker-end="url(#sm)"/>

<!-- UC2 -->
<text x="250" y="55" fill="#a6e3a1" font-family="monospace" font-size="12" font-weight="bold" text-anchor="middle">UC-2: Update Status</text>
<circle cx="250" cy="75" r="10" fill="#a6e3a1"/>
<rect x="200" y="95" width="100" height="28" rx="14" fill="#313244" stroke="#a6e3a1" stroke-width="1.5"/>
<text x="250" y="114" fill="#cdd6f4" font-family="monospace" font-size="10" text-anchor="middle">Enter Device ID</text>
<polygon points="250,138 215,160 250,182 285,160" fill="#313244" stroke="#f9e2af" stroke-width="1.5"/>
<text x="250" y="163" fill="#f9e2af" font-family="monospace" font-size="9" text-anchor="middle">Found?</text>
<rect x="200" y="195" width="100" height="28" rx="14" fill="#313244" stroke="#a6e3a1" stroke-width="1.5"/>
<text x="250" y="214" fill="#cdd6f4" font-family="monospace" font-size="10" text-anchor="middle">Show Status</text>
<rect x="200" y="238" width="100" height="28" rx="14" fill="#313244" stroke="#a6e3a1" stroke-width="1.5"/>
<text x="250" y="257" fill="#cdd6f4" font-family="monospace" font-size="10" text-anchor="middle">Select New</text>
<rect x="200" y="281" width="100" height="28" rx="14" fill="#a6e3a1" stroke="#a6e3a1" stroke-width="1.5"/>
<text x="250" y="300" fill="#1e1e2e" font-family="monospace" font-size="10" text-anchor="middle" font-weight="bold">✓ Saved</text>
<circle cx="250" cy="328" r="10" fill="none" stroke="#a6e3a1" stroke-width="2"/><circle cx="250" cy="328" r="6" fill="#a6e3a1"/>
<line x1="250" y1="85" x2="250" y2="95" stroke="#585b70" stroke-width="1.5" marker-end="url(#sm)"/>
<line x1="250" y1="123" x2="250" y2="138" stroke="#585b70" stroke-width="1.5" marker-end="url(#sm)"/>
<line x1="250" y1="182" x2="250" y2="195" stroke="#585b70" stroke-width="1.5" marker-end="url(#sm)"/>
<line x1="250" y1="223" x2="250" y2="238" stroke="#585b70" stroke-width="1.5" marker-end="url(#sm)"/>
<line x1="250" y1="266" x2="250" y2="281" stroke="#585b70" stroke-width="1.5" marker-end="url(#sm)"/>
<line x1="250" y1="309" x2="250" y2="318" stroke="#585b70" stroke-width="1.5" marker-end="url(#sm)"/>
<text x="294" y="155" fill="#f38ba8" font-family="monospace" font-size="9">No→Error</text>

<!-- UC3 -->
<text x="420" y="55" fill="#fab387" font-family="monospace" font-size="12" font-weight="bold" text-anchor="middle">UC-3: Log Issue</text>
<circle cx="420" cy="75" r="10" fill="#fab387"/>
<rect x="370" y="95" width="100" height="28" rx="14" fill="#313244" stroke="#fab387" stroke-width="1.5"/>
<text x="420" y="114" fill="#cdd6f4" font-family="monospace" font-size="10" text-anchor="middle">Enter Device ID</text>
<rect x="370" y="138" width="100" height="28" rx="14" fill="#313244" stroke="#fab387" stroke-width="1.5"/>
<text x="420" y="157" fill="#cdd6f4" font-family="monospace" font-size="10" text-anchor="middle">Description</text>
<rect x="370" y="181" width="100" height="28" rx="14" fill="#313244" stroke="#fab387" stroke-width="1.5"/>
<text x="420" y="200" fill="#cdd6f4" font-family="monospace" font-size="10" text-anchor="middle">Severity</text>
<rect x="370" y="224" width="100" height="28" rx="14" fill="#313244" stroke="#fab387" stroke-width="1.5"/>
<text x="420" y="243" fill="#cdd6f4" font-family="monospace" font-size="10" text-anchor="middle">Reporter Name</text>
<rect x="370" y="267" width="100" height="28" rx="14" fill="#fab387" stroke="#fab387" stroke-width="1.5"/>
<text x="420" y="286" fill="#1e1e2e" font-family="monospace" font-size="10" text-anchor="middle" font-weight="bold">✓ Issue Logged</text>
<circle cx="420" cy="315" r="10" fill="none" stroke="#fab387" stroke-width="2"/><circle cx="420" cy="315" r="6" fill="#fab387"/>
<line x1="420" y1="85" x2="420" y2="95" stroke="#585b70" stroke-width="1.5" marker-end="url(#sm)"/>
<line x1="420" y1="123" x2="420" y2="138" stroke="#585b70" stroke-width="1.5" marker-end="url(#sm)"/>
<line x1="420" y1="166" x2="420" y2="181" stroke="#585b70" stroke-width="1.5" marker-end="url(#sm)"/>
<line x1="420" y1="209" x2="420" y2="224" stroke="#585b70" stroke-width="1.5" marker-end="url(#sm)"/>
<line x1="420" y1="252" x2="420" y2="267" stroke="#585b70" stroke-width="1.5" marker-end="url(#sm)"/>
<line x1="420" y1="295" x2="420" y2="305" stroke="#585b70" stroke-width="1.5" marker-end="url(#sm)"/>

<!-- UC4 -->
<text x="590" y="55" fill="#cba6f7" font-family="monospace" font-size="12" font-weight="bold" text-anchor="middle">UC-4: Assign</text>
<circle cx="590" cy="75" r="10" fill="#cba6f7"/>
<rect x="540" y="95" width="100" height="28" rx="14" fill="#313244" stroke="#cba6f7" stroke-width="1.5"/>
<text x="590" y="114" fill="#cdd6f4" font-family="monospace" font-size="10" text-anchor="middle">Enter Device ID</text>
<rect x="540" y="138" width="100" height="28" rx="14" fill="#313244" stroke="#cba6f7" stroke-width="1.5"/>
<text x="590" y="157" fill="#cdd6f4" font-family="monospace" font-size="10" text-anchor="middle">Technician Name</text>
<rect x="540" y="181" width="100" height="28" rx="14" fill="#313244" stroke="#cba6f7" stroke-width="1.5"/>
<text x="590" y="200" fill="#cdd6f4" font-family="monospace" font-size="10" text-anchor="middle">Task Description</text>
<rect x="540" y="224" width="100" height="28" rx="14" fill="#313244" stroke="#cba6f7" stroke-width="1.5"/>
<text x="590" y="243" fill="#cdd6f4" font-family="monospace" font-size="10" text-anchor="middle">Create Record</text>
<rect x="540" y="267" width="100" height="28" rx="14" fill="#cba6f7" stroke="#cba6f7" stroke-width="1.5"/>
<text x="590" y="286" fill="#1e1e2e" font-family="monospace" font-size="10" text-anchor="middle" font-weight="bold">✓ Assigned</text>
<circle cx="590" cy="315" r="10" fill="none" stroke="#cba6f7" stroke-width="2"/><circle cx="590" cy="315" r="6" fill="#cba6f7"/>
<line x1="590" y1="85" x2="590" y2="95" stroke="#585b70" stroke-width="1.5" marker-end="url(#sm)"/>
<line x1="590" y1="123" x2="590" y2="138" stroke="#585b70" stroke-width="1.5" marker-end="url(#sm)"/>
<line x1="590" y1="166" x2="590" y2="181" stroke="#585b70" stroke-width="1.5" marker-end="url(#sm)"/>
<line x1="590" y1="209" x2="590" y2="224" stroke="#585b70" stroke-width="1.5" marker-end="url(#sm)"/>
<line x1="590" y1="252" x2="590" y2="267" stroke="#585b70" stroke-width="1.5" marker-end="url(#sm)"/>
<line x1="590" y1="295" x2="590" y2="305" stroke="#585b70" stroke-width="1.5" marker-end="url(#sm)"/>

<!-- UC5 -->
<text x="175" y="370" fill="#89dceb" font-family="monospace" font-size="12" font-weight="bold" text-anchor="middle">UC-5: Filter Devices</text>
<circle cx="175" cy="390" r="10" fill="#89dceb"/>
<rect x="125" y="410" width="100" height="28" rx="14" fill="#313244" stroke="#89dceb" stroke-width="1.5"/>
<text x="175" y="429" fill="#cdd6f4" font-family="monospace" font-size="10" text-anchor="middle">Choose Filters</text>
<rect x="125" y="453" width="100" height="28" rx="14" fill="#313244" stroke="#89dceb" stroke-width="1.5"/>
<text x="175" y="472" fill="#cdd6f4" font-family="monospace" font-size="10" text-anchor="middle">Status / Type</text>
<rect x="125" y="496" width="100" height="28" rx="14" fill="#313244" stroke="#89dceb" stroke-width="1.5"/>
<text x="175" y="515" fill="#cdd6f4" font-family="monospace" font-size="10" text-anchor="middle">System / Tech</text>
<rect x="125" y="539" width="100" height="28" rx="14" fill="#89dceb" stroke="#89dceb" stroke-width="1.5"/>
<text x="175" y="558" fill="#1e1e2e" font-family="monospace" font-size="10" text-anchor="middle" font-weight="bold">Show Results</text>
<line x1="175" y1="400" x2="175" y2="410" stroke="#585b70" stroke-width="1.5" marker-end="url(#sm)"/>
<line x1="175" y1="438" x2="175" y2="453" stroke="#585b70" stroke-width="1.5" marker-end="url(#sm)"/>
<line x1="175" y1="481" x2="175" y2="496" stroke="#585b70" stroke-width="1.5" marker-end="url(#sm)"/>
<line x1="175" y1="524" x2="175" y2="539" stroke="#585b70" stroke-width="1.5" marker-end="url(#sm)"/>

<!-- UC6 -->
<text x="590" y="370" fill="#f2cdcd" font-family="monospace" font-size="12" font-weight="bold" text-anchor="middle">UC-6: Generate Report</text>
<circle cx="590" cy="390" r="10" fill="#f2cdcd"/>
<rect x="540" y="410" width="100" height="28" rx="14" fill="#313244" stroke="#f2cdcd" stroke-width="1.5"/>
<text x="590" y="429" fill="#cdd6f4" font-family="monospace" font-size="10" text-anchor="middle">Count by Status</text>
<rect x="540" y="453" width="100" height="28" rx="14" fill="#313244" stroke="#f2cdcd" stroke-width="1.5"/>
<text x="590" y="472" fill="#cdd6f4" font-family="monospace" font-size="10" text-anchor="middle">Count by System</text>
<rect x="540" y="496" width="100" height="28" rx="14" fill="#313244" stroke="#f2cdcd" stroke-width="1.5"/>
<text x="590" y="515" fill="#cdd6f4" font-family="monospace" font-size="10" text-anchor="middle">List Open Issues</text>
<rect x="540" y="539" width="100" height="28" rx="14" fill="#f2cdcd" stroke="#f2cdcd" stroke-width="1.5"/>
<text x="590" y="558" fill="#1e1e2e" font-family="monospace" font-size="10" text-anchor="middle" font-weight="bold">Display Report</text>
<line x1="590" y1="400" x2="590" y2="410" stroke="#585b70" stroke-width="1.5" marker-end="url(#sm)"/>
<line x1="590" y1="438" x2="590" y2="453" stroke="#585b70" stroke-width="1.5" marker-end="url(#sm)"/>
<line x1="590" y1="481" x2="590" y2="496" stroke="#585b70" stroke-width="1.5" marker-end="url(#sm)"/>
<line x1="590" y1="524" x2="590" y2="539" stroke="#585b70" stroke-width="1.5" marker-end="url(#sm)"/>

<!-- vertical divider -->
<line x1="500" y1="350" x2="500" y2="580" stroke="#313244" stroke-width="1" stroke-dasharray="4,4"/>

<defs><marker id="sm" viewBox="0 0 10 10" refX="9" refY="5" markerWidth="6" markerHeight="6" orient="auto"><path d="M0,0 L10,5 L0,10 Z" fill="#585b70"/></marker></defs>
</svg>