<svg xmlns="http://www.w3.org/2000/svg" viewBox="0 0 900 520" width="900" height="520">
<rect width="900" height="520" fill="#1e1e2e"/>
<text x="450" y="28" fill="#cdd6f4" font-family="monospace" font-size="16" font-weight="bold" text-anchor="middle">Prototype – Console Screen Sketches</text>

<!-- Screen 1: Main -->
<rect x="20" y="45" width="200" height="180" rx="6" fill="#181825" stroke="#45475a" stroke-width="1.5"/>
<rect x="20" y="45" width="200" height="22" rx="6" fill="#313244"/>
<rect x="20" y="59" width="200" height="8" fill="#313244"/>
<circle cx="36" cy="56" r="5" fill="#f38ba8"/><circle cx="52" cy="56" r="5" fill="#f9e2af"/><circle cx="68" cy="56" r="5" fill="#a6e3a1"/>
<text x="120" y="57" fill="#6c7086" font-family="monospace" font-size="9" text-anchor="middle">terminal</text>
<text x="30" y="88" fill="#89b4fa" font-family="monospace" font-size="9">╔═══════════════════╗</text>
<text x="30" y="100" fill="#89b4fa" font-family="monospace" font-size="9">║   DEVICE TRACKER  ║</text>
<text x="30" y="112" fill="#89b4fa" font-family="monospace" font-size="9">╚═══════════════════╝</text>
<text x="30" y="128" fill="#cdd6f4" font-family="monospace" font-size="9"> 1. Manage Devices</text>
<text x="30" y="140" fill="#cdd6f4" font-family="monospace" font-size="9"> 2. Manage Issues</text>
<text x="30" y="152" fill="#cdd6f4" font-family="monospace" font-size="9"> 3. Assignments</text>
<text x="30" y="164" fill="#cdd6f4" font-family="monospace" font-size="9"> 4. Reports</text>
<text x="30" y="176" fill="#cdd6f4" font-family="monospace" font-size="9"> 0. Exit</text>
<text x="30" y="196" fill="#f9e2af" font-family="monospace" font-size="9"> Select option: _</text>
<text x="120" y="235" fill="#6c7086" font-family="monospace" font-size="10" text-anchor="middle">① Main Menu</text>

<!-- Screen 2: Device Sub -->
<rect x="240" y="45" width="200" height="180" rx="6" fill="#181825" stroke="#45475a" stroke-width="1.5"/>
<rect x="240" y="45" width="200" height="22" rx="6" fill="#313244"/>
<rect x="240" y="59" width="200" height="8" fill="#313244"/>
<circle cx="256" cy="56" r="5" fill="#f38ba8"/><circle cx="272" cy="56" r="5" fill="#f9e2af"/><circle cx="288" cy="56" r="5" fill="#a6e3a1"/>
<text x="340" y="57" fill="#6c7086" font-family="monospace" font-size="9" text-anchor="middle">terminal</text>
<text x="250" y="88" fill="#89b4fa" font-family="monospace" font-size="9">╔═══════════════════╗</text>
<text x="250" y="100" fill="#89b4fa" font-family="monospace" font-size="9">║  Manage Devices   ║</text>
<text x="250" y="112" fill="#89b4fa" font-family="monospace" font-size="9">╚═══════════════════╝</text>
<text x="250" y="128" fill="#cdd6f4" font-family="monospace" font-size="9"> 1. List all devices</text>
<text x="250" y="140" fill="#cdd6f4" font-family="monospace" font-size="9"> 2. Add new device</text>
<text x="250" y="152" fill="#cdd6f4" font-family="monospace" font-size="9"> 3. View device</text>
<text x="250" y="164" fill="#cdd6f4" font-family="monospace" font-size="9"> 4. Update status</text>
<text x="250" y="176" fill="#cdd6f4" font-family="monospace" font-size="9"> 5. Assign device</text>
<text x="250" y="196" fill="#f9e2af" font-family="monospace" font-size="9"> Select: _</text>
<text x="340" y="235" fill="#6c7086" font-family="monospace" font-size="10" text-anchor="middle">② Device Sub-Menu</text>

<!-- Screen 3: Device Table -->
<rect x="460" y="45" width="420" height="180" rx="6" fill="#181825" stroke="#45475a" stroke-width="1.5"/>
<rect x="460" y="45" width="420" height="22" rx="6" fill="#313244"/>
<rect x="460" y="59" width="420" height="8" fill="#313244"/>
<circle cx="476" cy="56" r="5" fill="#f38ba8"/><circle cx="492" cy="56" r="5" fill="#f9e2af"/><circle cx="508" cy="56" r="5" fill="#a6e3a1"/>
<text x="670" y="57" fill="#6c7086" font-family="monospace" font-size="9" text-anchor="middle">terminal</text>
<text x="470" y="84" fill="#cdd6f4" font-family="monospace" font-size="9"> ID         Name              Type          Status     System</text>
<text x="470" y="96" fill="#45475a" font-family="monospace" font-size="9"> ─────────────────────────────────────────────────────────────</text>
<text x="470" y="108" fill="#a6e3a1" font-family="monospace" font-size="9"> A1B2C3D4   Controller-01     Controller    Active     HVAC-1</text>
<text x="470" y="120" fill="#f9e2af" font-family="monospace" font-size="9"> E5F6G7H8   Switch-Floor3     NetEquip      Pending    Net-A</text>
<text x="470" y="132" fill="#f38ba8" font-family="monospace" font-size="9"> I9J0K1L2   Sensor-TempZone2  Sensor        Faulty     HVAC-1</text>
<text x="470" y="144" fill="#89dceb" font-family="monospace" font-size="9"> P2Q3R4S5   Server-Main-01    Server        Installed  Net-B</text>
<text x="470" y="156" fill="#cdd6f4" font-family="monospace" font-size="9"> W6X7Y8Z9   PowerUnit-Rack3   PowerUnit     Active     PWR-1</text>
<text x="470" y="172" fill="#6c7086" font-family="monospace" font-size="9"> Total: 5 device(s)</text>
<text x="670" y="235" fill="#6c7086" font-family="monospace" font-size="10" text-anchor="middle">③ Device List View</text>

<!-- Screen 4: Issues -->
<rect x="20" y="260" width="420" height="170" rx="6" fill="#181825" stroke="#45475a" stroke-width="1.5"/>
<rect x="20" y="260" width="420" height="22" rx="6" fill="#313244"/>
<rect x="20" y="274" width="420" height="8" fill="#313244"/>
<circle cx="36" cy="271" r="5" fill="#f38ba8"/><circle cx="52" cy="271" r="5" fill="#f9e2af"/><circle cx="68" cy="271" r="5" fill="#a6e3a1"/>
<text x="230" y="272" fill="#6c7086" font-family="monospace" font-size="9" text-anchor="middle">terminal</text>
<text x="30" y="300" fill="#cdd6f4" font-family="monospace" font-size="9"> ID         Sev       Status      Reporter     Description</text>
<text x="30" y="312" fill="#45475a" font-family="monospace" font-size="9"> ──────────────────────────────────────────────────────────</text>
<text x="30" y="324" fill="#f38ba8" font-family="monospace" font-size="9"> P1Q2R3S4   Critical  Open        Cyrenna      Device not communicating</text>
<text x="30" y="336" fill="#f9e2af" font-family="monospace" font-size="9"> T5U6V7W8   Medium    InProgress  Bob Jones    IP conflict on switch</text>
<text x="30" y="348" fill="#a6e3a1" font-family="monospace" font-size="9"> X1Y2Z3A4   Low       Resolved    Alice Smith  Cable replaced</text>
<text x="30" y="370" fill="#f9e2af" font-family="monospace" font-size="9"> Log issue — Device ID: A1B2C3D4</text>
<text x="30" y="382" fill="#f9e2af" font-family="monospace" font-size="9"> Description: Not responding after reboot</text>
<text x="30" y="394" fill="#f9e2af" font-family="monospace" font-size="9"> Severity [Low/Med/High/Critical]: High</text>
<text x="30" y="415" fill="#a6e3a1" font-family="monospace" font-size="9"> ✓ Issue logged: K2L3M4N5</text>
<text x="230" y="440" fill="#6c7086" font-family="monospace" font-size="10" text-anchor="middle">④ Issue Log</text>

<!-- Screen 5: Report -->
<rect x="460" y="260" width="420" height="170" rx="6" fill="#181825" stroke="#45475a" stroke-width="1.5"/>
<rect x="460" y="260" width="420" height="22" rx="6" fill="#313244"/>
<rect x="460" y="274" width="420" height="8" fill="#313244"/>
<circle cx="476" cy="271" r="5" fill="#f38ba8"/><circle cx="492" cy="271" r="5" fill="#f9e2af"/><circle cx="508" cy="271" r="5" fill="#a6e3a1"/>
<text x="670" y="272" fill="#6c7086" font-family="monospace" font-size="9" text-anchor="middle">terminal</text>
<text x="470" y="300" fill="#89b4fa" font-family="monospace" font-size="10" font-weight="bold"> === DEVICE STATUS REPORT ===</text>
<text x="470" y="314" fill="#6c7086" font-family="monospace" font-size="9"> Generated: 2026-04-09 14:32  |  Total Devices: 47</text>
<text x="470" y="330" fill="#cdd6f4" font-family="monospace" font-size="9"> --- By Status ---</text>
<text x="470" y="342" fill="#a6e3a1" font-family="monospace" font-size="9">   Active              18</text>
<text x="470" y="354" fill="#f9e2af" font-family="monospace" font-size="9">   Pending             14</text>
<text x="470" y="366" fill="#f38ba8" font-family="monospace" font-size="9">   Faulty               6</text>
<text x="630" y="330" fill="#cdd6f4" font-family="monospace" font-size="9"> --- By System ---</text>
<text x="630" y="342" fill="#cdd6f4" font-family="monospace" font-size="9">   HVAC-1          12</text>
<text x="630" y="354" fill="#cdd6f4" font-family="monospace" font-size="9">   Network-A       10</text>
<text x="630" y="366" fill="#cdd6f4" font-family="monospace" font-size="9">   Network-B        9</text>
<text x="470" y="385" fill="#f9e2af" font-family="monospace" font-size="9"> Export to file? (y/n): y</text>
<text x="470" y="400" fill="#a6e3a1" font-family="monospace" font-size="9"> ✓ Saved: ~/DeviceTrackerReports/StatusReport_20260409_1432.txt</text>
<text x="670" y="440" fill="#6c7086" font-family="monospace" font-size="10" text-anchor="middle">⑤ Status Report</text>

<!-- flow arrows between screens -->
<path d="M220,135 Q230,135 240,135" fill="none" stroke="#585b70" stroke-width="1.5" marker-end="url(#pm)"/>
<path d="M350,225 Q350,248 450,253 Q550,258 560,253" fill="none" stroke="#585b70" stroke-width="1.5" stroke-dasharray="4,3" marker-end="url(#pm)"/>

<defs><marker id="pm" viewBox="0 0 10 10" refX="9" refY="5" markerWidth="6" markerHeight="6" orient="auto"><path d="M0,0 L10,5 L0,10 Z" fill="#585b70"/></marker></defs>
</svg>